<svg xmlns="http://www.w3.org/2000/svg" xmlns:xlink="http://www.w3.org/1999/xlink" version="1.1" x="0px" y="0px" viewBox="0 0 780 440" xml:space="preserve"> <g id="Background"> </g> <g id="Artwork"> <rect x="0" fill="#FF76AE" width="780" height="440"></rect> <path fill="#FFFFFF" stroke="#162020" stroke-width="1.25" stroke-miterlimit="10" d="M316.9557,89.805h166.0411 c7.4656,0,13.5177,6.0521,13.5177,13.5177v233.3546c0,7.4656-6.0521,13.5177-13.5177,13.5177H316.9557 c-7.4656,0-13.5177-6.0521-13.5177-13.5177V103.3227C303.438,95.8571,309.4901,89.805,316.9557,89.805z"></path> <path fill="#FF76AE" stroke="#162020" stroke-width="1.25" stroke-miterlimit="10" d="M463.4508,139.2627h-90.5993 c-4.0604,0-7.352-3.2916-7.352-7.3519v0c0-4.0604,3.2916-7.352,7.352-7.352h90.5993c4.0604,0,7.352,3.2916,7.352,7.352v0 C470.8027,135.9711,467.5112,139.2627,463.4508,139.2627z"></path> <rect x="329.341" y="156.7865" fill="#B22F5B" stroke="#162020" stroke-width="1.25" stroke-miterlimit="10" width="141.4682" height="127.7912"></rect> <circle fill="#FF76AE" stroke="#162020" stroke-width="1.25" stroke-miterlimit="10" cx="340.846" cy="131.1592" r="11.7028"></circle> <line fill="none" stroke="#000000" stroke-width="1.25" stroke-linecap="round" stroke-linejoin="round" stroke-miterlimit="10" stroke-dasharray="5" x1="330.1585" y1="306.2755" x2="471.9783" y2="306.2755"></line> <line fill="none" stroke="#000000" stroke-width="1.25" stroke-linecap="round" stroke-linejoin="round" stroke-miterlimit="10" stroke-dasharray="5" x1="330.1585" y1="325.4174" x2="443.6489" y2="325.4174"></line> <circle fill="#B22F5B" stroke="#162020" stroke-width="1.25" stroke-miterlimit="10" cx="181.4693" cy="224.8987" r="71.8818"></circle> <circle fill="#FFFFFF" stroke="#162020" stroke-width="1.25" stroke-miterlimit="10" cx="181.4693" cy="224.8987" r="57.2653"></circle> <line fill="none" stroke="#162020" stroke-width="1.25" stroke-linecap="round" stroke-linejoin="round" stroke-miterlimit="10" x1="237.9891" y1="225.285" x2="227.1812" y2="225.285"></line> <line fill="none" stroke="#162020" stroke-width="1.25" stroke-linecap="round" stroke-linejoin="round" stroke-miterlimit="10" x1="138.2428" y1="225.285" x2="124.4186" y2="225.285"></line> <line fill="none" stroke="#162020" stroke-width="1.25" stroke-linecap="round" stroke-linejoin="round" stroke-miterlimit="10" x1="181.7065" y1="281.5676" x2="181.7065" y2="270.7597"></line> <line fill="none" stroke="#162020" stroke-width="1.25" stroke-linecap="round" stroke-linejoin="round" stroke-miterlimit="10" x1="181.7065" y1="181.8213" x2="181.7065" y2="167.9971"></line> <path fill="#FF76AE" stroke="#162020" stroke-width="1.25" stroke-miterlimit="10" d="M181.6364,167.8428 c-32.0901,0-57.3415,26.0141-57.3415,58.1042h57.3415V167.8428"></path> <g> <g> <path fill="none" stroke="#000000" stroke-width="1.25" stroke-linecap="round" stroke-linejoin="round" d="M272.7391,230.514 c-0.0457,0.8345-0.1025,1.666-0.1704,2.4945"></path> <path fill="none" stroke="#000000" stroke-width="1.25" stroke-linecap="round" stroke-linejoin="round" stroke-dasharray="4.9493,4.9493" d=" M272.0313,237.9294c-6.0905,44.5743-44.3156,78.918-90.5621,78.918c-50.4834,0-91.4083-40.9249-91.4083-91.4083 c0-48.8148,38.2643-88.6926,86.435-91.2753"></path> <path fill="none" stroke="#000000" stroke-width="1.25" stroke-linecap="round" stroke-linejoin="round" d="M178.9691,134.0643 c0.8307-0.0223,1.6641-0.0335,2.5002-0.0335"></path> </g> </g> <polyline fill="none" stroke="#000000" stroke-width="1.25" stroke-linecap="round" stroke-linejoin="round" stroke-miterlimit="10" points=" 171.3512,145.0632 182.9159,134.1355 171.5683,122.7852 "></polyline> <line fill="none" stroke="#162020" stroke-width="1.25" stroke-linecap="round" stroke-linejoin="round" stroke-miterlimit="10" x1="199.9859" y1="208.1476" x2="186.8005" y2="221.333"></line> <line fill="none" stroke="#162020" stroke-width="1.25" stroke-linecap="round" stroke-linejoin="round" stroke-miterlimit="10" x1="207.2121" y1="250.9309" x2="186.2618" y2="229.139"></line> <circle fill="#B22F5B" stroke="#162020" stroke-width="1.25" stroke-miterlimit="10" cx="181.7888" cy="225.1435" r="7.1705"></circle> <path fill="#FFFFFF" stroke="#162020" stroke-width="1.25" stroke-miterlimit="10" d="M665.9354,299.8369H550.0958 c-8.7289,0-15.805-7.0761-15.805-15.805V168.1922c0-8.7289,7.0761-15.805,15.805-15.805h115.8397 c8.7289,0,15.805,7.0761,15.805,15.805v115.8397C681.7404,292.7608,674.6643,299.8369,665.9354,299.8369z"></path> <rect x="635.0257" y="207.5095" transform="matrix(-1 -1.224647e-16 1.224647e-16 -1 1299.1128 444.0804)" fill="none" stroke="#000000" stroke-width="1.25" stroke-linecap="round" stroke-linejoin="round" stroke-miterlimit="10" stroke-dasharray="5.1733" width="29.0614" height="29.0614"></rect> <rect x="635.0257" y="249.1938" transform="matrix(-1 -1.224647e-16 1.224647e-16 -1 1299.1128 527.449)" fill="#FF76AE" stroke="#162020" stroke-width="1.25" stroke-miterlimit="10" width="29.0614" height="29.0614"></rect> <rect x="593.7379" y="207.5095" transform="matrix(-1 -1.224647e-16 1.224647e-16 -1 1216.5372 444.0804)" fill="#FF76AE" stroke="#162020" stroke-width="1.25" stroke-miterlimit="10" width="29.0614" height="29.0614"></rect> <rect x="593.7379" y="249.1938" transform="matrix(-1 -1.224647e-16 1.224647e-16 -1 1216.5372 527.449)" fill="none" stroke="#000000" stroke-width="1.25" stroke-linecap="round" stroke-linejoin="round" stroke-miterlimit="10" stroke-dasharray="5.1733" width="29.0614" height="29.0614"></rect> <rect x="553.4824" y="207.5095" transform="matrix(-1 -1.224647e-16 1.224647e-16 -1 1136.0261 444.0804)" fill="none" stroke="#000000" stroke-width="1.25" stroke-linecap="round" stroke-linejoin="round" stroke-miterlimit="10" stroke-dasharray="5.1733" width="29.0614" height="29.0614"></rect> <rect x="553.4824" y="249.1938" transform="matrix(-1 -1.224647e-16 1.224647e-16 -1 1136.0261 527.449)" fill="#FF76AE" stroke="#162020" stroke-width="1.25" stroke-miterlimit="10" width="29.0614" height="29.0614"></rect> <path fill="#B22F5B" stroke="#162020" stroke-width="1.25" stroke-miterlimit="10" d="M681.7404,188.6966H534.2908v-23.8048 c0-6.9061,5.5984-12.5046,12.5046-12.5046h122.4405c6.9061,0,12.5046,5.5985,12.5046,12.5046V188.6966z"></path> <path fill="#FF76AE" stroke="#162020" stroke-width="1.25" stroke-miterlimit="10" d="M560.3832,164.59v-19.371 c0-3.2401,2.6266-5.8667,5.8667-5.8667l0,0c3.2401,0,5.8666,2.6266,5.8666,5.8667v19.371c0,3.2401-2.6266,5.8667-5.8666,5.8667l0,0 C563.0098,170.4567,560.3832,167.8301,560.3832,164.59z"></path> <path fill="#FF76AE" stroke="#162020" stroke-width="1.25" stroke-miterlimit="10" d="M644.633,164.59v-19.371 c0-3.2401,2.6266-5.8667,5.8666-5.8667l0,0c3.2401,0,5.8667,2.6266,5.8667,5.8667v19.371c0,3.2401-2.6266,5.8667-5.8667,5.8667l0,0 C647.2596,170.4567,644.633,167.8301,644.633,164.59z"></path> <g> <g> <path fill="#FFFFFF" d="M400.168,197.1512c7.662,0,8.5221,0,11.5713,0.2346c2.8146,0.0782,4.3783,0.6255,5.3947,1.0164 c1.3291,0.4691,2.3455,1.0946,3.3619,2.111c1.0164,1.0164,1.6419,1.9546,2.111,3.3619c0.3909,1.0164,0.7818,2.5019,1.0164,5.3947 c0.0782,3.0492,0.2346,3.9874,0.2346,11.5713c0,7.5839,0,8.5221-0.2346,11.5713c-0.0782,2.8146-0.6255,4.3783-1.0164,5.3947 c-0.4691,1.3291-1.0946,2.3455-2.111,3.3619c-1.0164,1.0164-1.9546,1.6419-3.3619,2.111 c-1.0164,0.3909-2.5019,0.7818-5.3947,1.0164c-3.0492,0.0782-3.9874,0.2346-11.5713,0.2346s-8.5221,0-11.5713-0.2346 c-2.8146-0.0782-4.3783-0.6255-5.3947-1.0164c-1.3291-0.4691-2.3455-1.0946-3.3619-2.111 c-1.0164-1.0164-1.6419-1.9546-2.111-3.3619c-0.3909-1.0164-0.7818-2.5019-1.0164-5.3947 c-0.0782-3.0492-0.2345-3.9874-0.2345-11.5713c0-7.5839,0-8.5221,0.2345-11.5713c0.0782-2.8146,0.6255-4.3783,1.0164-5.3947 c0.4691-1.3291,1.0946-2.3455,2.111-3.3619c1.0164-1.0164,1.9546-1.6419,3.3619-2.111c1.0164-0.3909,2.5019-0.7818,5.3947-1.0164 C391.5677,197.1512,392.506,197.1512,400.168,197.1512 M400.168,191.9911c-7.8184,0-8.6785,0-11.884,0.2346 c-3.0492,0.0782-5.1602,0.6255-6.9584,1.3291c-1.9546,0.7037-3.4401,1.7201-5.082,3.3619 c-1.6419,1.6419-2.5019,3.1274-3.3619,5.082c-0.7037,1.7982-1.2509,3.9874-1.3292,6.9584 c-0.0782,3.0492-0.2345,4.0656-0.2345,11.884s0,8.6785,0.2345,11.884c0.0782,3.0492,0.6255,5.1602,1.3292,6.9584 c0.7036,1.9546,1.7201,3.4401,3.3619,5.082s3.1274,2.5019,5.082,3.3619c1.7982,0.7037,3.9874,1.2509,6.9584,1.3291 c3.0492,0.0782,4.0656,0.2345,11.884,0.2345s8.6785,0,11.884-0.2345c3.0492-0.0782,5.1602-0.6255,6.9584-1.3291 c1.9546-0.7036,3.4401-1.72,5.082-3.3619s2.5019-3.1274,3.3619-5.082c0.7036-1.7982,1.2509-3.9874,1.3291-6.9584 c0.0782-3.0492,0.2346-4.0656,0.2346-11.884s0-8.6785-0.2346-11.884c-0.0782-3.0492-0.6255-5.1602-1.3291-6.9584 c-0.7036-1.9546-1.7201-3.4401-3.3619-5.082c-1.6419-1.6419-3.1274-2.5019-5.082-3.3619 c-1.7982-0.7036-3.9874-1.2509-6.9584-1.3291C408.8465,191.9911,407.9865,191.9911,400.168,191.9911L400.168,191.9911z"></path> <path fill="#FFFFFF" d="M400.168,205.9079c-8.1312,0-14.6986,6.5675-14.6986,14.6986s6.5675,14.6986,14.6986,14.6986 s14.6986-6.5675,14.6986-14.6986S408.2992,205.9079,400.168,205.9079z M400.168,230.2232c-5.2383,0-9.5385-4.2219-9.5385-9.5385 s4.222-9.5385,9.5385-9.5385s9.5385,4.2219,9.5385,9.5385C409.7065,225.923,405.4064,230.2232,400.168,230.2232z"></path> <circle fill="#FFFFFF" cx="415.4922" cy="205.3606" r="3.4401"></circle> </g> </g> </g> <g id="Safe_Zone"> </g> </svg>